<svg width="30" height="33" viewBox="0 0 30 33" fill="none" xmlns="http://www.w3.org/2000/svg">
<g filter="url(#filter0_dd_109_60)">
<path fill-rule="evenodd" clip-rule="evenodd" d="M4.5 14C4.5 13.5168 4.89175 13.125 5.375 13.125H24.625C25.1082 13.125 25.5 13.5168 25.5 14C25.5 14.4832 25.1082 14.875 24.625 14.875H5.375C4.89175 14.875 4.5 14.4832 4.5 14Z" fill="#EBEBEB"/>
<path fill-rule="evenodd" clip-rule="evenodd" d="M15 3.5C15.4832 3.5 15.875 3.89175 15.875 4.375V23.625C15.875 24.1082 15.4832 24.5 15 24.5C14.5168 24.5 14.125 24.1082 14.125 23.625V4.375C14.125 3.89175 14.5168 3.5 15 3.5Z" fill="#EBEBEB"/>
</g>
<defs>
<filter id="filter0_dd_109_60" x="-3" y="0" width="36" height="36" filterUnits="userSpaceOnUse" color-interpolation-filters="sRGB">
<feFlood flood-opacity="0" result="BackgroundImageFix"/>
<feColorMatrix in="SourceAlpha" type="matrix" values="0 0 0 0 0 0 0 0 0 0 0 0 0 0 0 0 0 0 127 0" result="hardAlpha"/>
<feOffset dy="4"/>
<feGaussianBlur stdDeviation="2"/>
<feComposite in2="hardAlpha" operator="out"/>
<feColorMatrix type="matrix" values="0 0 0 0 0 0 0 0 0 0 0 0 0 0 0 0 0 0 0.25 0"/>
<feBlend mode="normal" in2="BackgroundImageFix" result="effect1_dropShadow_109_60"/>
<feColorMatrix in="SourceAlpha" type="matrix" values="0 0 0 0 0 0 0 0 0 0 0 0 0 0 0 0 0 0 127 0" result="hardAlpha"/>
<feOffset dy="4"/>
<feGaussianBlur stdDeviation="2"/>
<feComposite in2="hardAlpha" operator="out"/>
<feColorMatrix type="matrix" values="0 0 0 0 0 0 0 0 0 0 0 0 0 0 0 0 0 0 0.25 0"/>
<feBlend mode="normal" in2="effect1_dropShadow_109_60" result="effect2_dropShadow_109_60"/>
<feBlend mode="normal" in="SourceGraphic" in2="effect2_dropShadow_109_60" result="shape"/>
</filter>
</defs>
</svg>
